<?xml version="1.0" encoding="utf-8"?>
<!-- Generator: Adobe Illustrator 29.5.1, SVG Export Plug-In . SVG Version: 9.03 Build 0)  -->
<svg version="1.1" id="Calque_1" xmlns="http://www.w3.org/2000/svg" xmlns:xlink="http://www.w3.org/1999/xlink" x="0px" y="0px"
	 viewBox="0 0 1024 1024" style="enable-background:new 0 0 1024 1024;" xml:space="preserve">
<style type="text/css">
	.st0{fill:#F8FAFC;}
	.st1{opacity:8.000000e-02;fill:#0E0E11;enable-background:new    ;}
	.st2{fill:url(#SVGID_1_);}
	.st3{fill:url(#SVGID_00000080169428210026063850000004830970850455339198_);}
	.st4{fill:url(#SVGID_00000105393885056996805970000018298871163201081993_);}
	.st5{fill:url(#SVGID_00000165214413419065295220000003044794396195146400_);}
	.st6{fill:#E11D2F;}
	.st7{enable-background:new    ;}
	.st8{fill:#17171C;}
</style>
<rect y="0" class="st0" width="1024" height="1024"/>
<path class="st1" d="M91,270.1C91,67.7,333.9-13.2,512,116.3C690.1-13.2,933,67.7,933,270.1c0,178.1-194.3,239.6-356.2,315.8v161.9
	H447.2V585.9C285.3,509.8,91,448.3,91,270.1z"/>
<linearGradient id="SVGID_1_" gradientUnits="userSpaceOnUse" x1="212.3522" y1="811.0649" x2="213.9715" y2="809.4457" gradientTransform="matrix(227.3079 0 0 -216.4182 -48160.207 175596.5)">
	<stop  offset="0" style="stop-color:#F58220"/>
	<stop  offset="1" style="stop-color:#F6C026"/>
</linearGradient>
<path class="st2" d="M139.6,229.7C155.8,59.6,333.9,3,487.7,116.3C358.2,237.8,269.1,302.5,139.6,407.8
	C99.1,334.9,131.5,302.5,139.6,229.7z"/>
<linearGradient id="SVGID_00000096025996591952788130000007178362204754965669_" gradientUnits="userSpaceOnUse" x1="213.2963" y1="811.3079" x2="214.9155" y2="809.6887" gradientTransform="matrix(227.3079 0 0 -216.4182 -47902.8906 175596.5)">
	<stop  offset="0" style="stop-color:#D81B8A"/>
	<stop  offset="1" style="stop-color:#17B7C7"/>
</linearGradient>
<path style="fill:url(#SVGID_00000096025996591952788130000007178362204754965669_);" d="M884.4,229.7
	C868.2,59.6,690.1,3,536.3,116.3c129.5,121.4,218.6,186.2,348.1,291.5C924.9,334.9,892.5,302.5,884.4,229.7z"/>
<linearGradient id="SVGID_00000086673494228835849150000011576573249072469433_" gradientUnits="userSpaceOnUse" x1="212.2849" y1="810.9995" x2="213.9041" y2="809.3802" gradientTransform="matrix(227.3079 0 0 -151.7836 -48160.207 123480.4297)">
	<stop  offset="0" style="stop-color:#6F2DA8"/>
	<stop  offset="1" style="stop-color:#9C27B0"/>
</linearGradient>
<path style="fill:url(#SVGID_00000086673494228835849150000011576573249072469433_);" d="M139.6,407.8
	c129.5-40.5,218.6,24.3,348.1,145.7c-153.8,113.3-331.9,56.7-348.1-113.3C131.5,367.3,99.1,334.9,139.6,407.8z"/>
<linearGradient id="SVGID_00000025443797605835925870000003387680589367632555_" gradientUnits="userSpaceOnUse" x1="213.1129" y1="811.1133" x2="214.7122" y2="809.5141" gradientTransform="matrix(227.3079 0 0 -151.7836 -47902.8906 123480.4297)">
	<stop  offset="0" style="stop-color:#16A34A"/>
	<stop  offset="1" style="stop-color:#84CC16"/>
</linearGradient>
<path style="fill:url(#SVGID_00000025443797605835925870000003387680589367632555_);" d="M884.4,407.8
	c-129.5-40.5-218.6,24.3-348.1,145.7C690.1,666.9,860,609.2,884.4,440.2C887.1,421.9,887.7,416.8,884.4,407.8z"/>
<path class="st6" d="M534.6,188.1l124.2,124.2c12.5,12.5,12.5,32.8,0,45.3L534.6,481.7c-12.5,12.5-32.8,12.5-45.3,0L365.2,357.5
	c-12.5-12.5-12.5-32.8,0-45.3l124.2-124.2C501.9,175.6,522.1,175.6,534.6,188.1z"/>
<g class="st7">
	<path class="st8" d="M217.8,828h16.3v-8.3c0-9.3,1-16.3,3-20.9c2-4.6,5.6-8.3,11-11.2c5.3-2.9,12.1-4.3,20.2-4.3
		c8.3,0,16.5,1.3,24.5,3.8l-4,20.5c-4.7-1.1-9.1-1.7-13.5-1.7c-4.2,0-7.3,1-9.1,3c-1.8,2-2.8,5.8-2.8,11.4v7.8h21.9v23.1h-21.9v87.8
		h-29.3v-87.8h-16.3V828z"/>
	<path class="st8" d="M374.8,938.9v-16.6c-4,5.9-9.3,10.6-15.9,14c-6.6,3.4-13.5,5.1-20.8,5.1c-7.4,0-14.1-1.6-20-4.9
		c-5.9-3.3-10.2-7.9-12.8-13.8c-2.6-5.9-4-14.1-4-24.5V828h29.3V879c0,15.6,0.5,25.1,1.6,28.6c1.1,3.5,3,6.3,5.9,8.3
		c2.9,2.1,6.5,3.1,10.9,3.1c5,0,9.5-1.4,13.5-4.1c4-2.7,6.7-6.2,8.1-10.2c1.5-4.1,2.2-14,2.2-29.9V828H402v110.8H374.8z"/>
	<path class="st8" d="M419.5,828h16.3v-8.3c0-9.3,1-16.3,3-20.9c2-4.6,5.6-8.3,11-11.2c5.3-2.9,12.1-4.3,20.2-4.3
		c8.3,0,16.5,1.3,24.5,3.8l-4,20.5c-4.7-1.1-9.1-1.7-13.5-1.7c-4.2,0-7.3,1-9.1,3c-1.8,2-2.8,5.8-2.8,11.4v7.8h21.9v23.1h-21.9v87.8
		h-29.3v-87.8h-16.3V828z"/>
	<path class="st8" d="M576.5,938.9v-16.6c-4,5.9-9.3,10.6-15.9,14s-13.5,5.1-20.8,5.1c-7.4,0-14.1-1.6-20-4.9
		c-5.9-3.3-10.2-7.9-12.8-13.8c-2.6-5.9-4-14.1-4-24.5V828h29.3V879c0,15.6,0.5,25.1,1.6,28.6c1.1,3.5,3,6.3,5.9,8.3
		c2.9,2.1,6.5,3.1,10.9,3.1c5,0,9.5-1.4,13.5-4.1c4-2.7,6.7-6.2,8.1-10.2s2.2-14,2.2-29.9V828h29.3v110.8H576.5z"/>
	<path class="st8" d="M734.9,938.9h-29.3v-56.6c0-12-0.6-19.7-1.9-23.2c-1.3-3.5-3.3-6.2-6.1-8.2c-2.8-1.9-6.2-2.9-10.2-2.9
		c-5.1,0-9.6,1.4-13.7,4.2c-4,2.8-6.8,6.5-8.3,11.1c-1.5,4.6-2.2,13.1-2.2,25.5v50.2h-29.3V828h27.2v16.3
		c9.7-12.5,21.8-18.8,36.5-18.8c6.5,0,12.4,1.2,17.7,3.5c5.4,2.3,9.4,5.3,12.2,8.9c2.7,3.6,4.7,7.7,5.7,12.3
		c1.1,4.6,1.6,11.2,1.6,19.7V938.9z"/>
	<path class="st8" d="M764.7,813v-27.1H794V813H764.7z M764.7,938.9V828H794v110.8H764.7z"/>
</g>
</svg>
