<?xml version="1.0" encoding="utf-8"?>
<!-- Generator: Adobe Illustrator 29.5.1, SVG Export Plug-In . SVG Version: 9.03 Build 0)  -->
<svg version="1.1" id="Calque_1" xmlns="http://www.w3.org/2000/svg" xmlns:xlink="http://www.w3.org/1999/xlink" x="0px" y="0px"
	 viewBox="0 0 1024 1024" style="enable-background:new 0 0 1024 1024;" xml:space="preserve">
<style type="text/css">
	.st0{fill:#FFFFFF;}
	.st1{fill:#0E0E11;}
	.st2{fill:#E11D2F;}
	.st3{fill:#F58220;}
	.st4{fill:#D81B8A;}
	.st5{fill:#6F2DA8;}
	.st6{fill:#16A34A;}
	.st7{enable-background:new    ;}
</style>
<path class="st0" d="M64,0h896c35.3,0,64,28.7,64,64v896c0,35.3-28.7,64-64,64H64c-35.3,0-64-28.7-64-64V64C0,28.7,28.7,0,64,0z"/>
<g transform="translate(512 380)">
	<path class="st1" d="M-362.1-308.1H-29v130.4h-188.3v101.4h159.3V54.1h-159.3v246.2h-144.8V-308.1z"/>
	<path class="st1" d="M362.1-308.1H29v130.4h188.3v101.4H57.9V54.1h159.3v246.2h144.8V-308.1z"/>
	<path class="st2" d="M-31.5-105.3h62.9c6.6,0,12,5.4,12,12v62.9c0,6.6-5.4,12-12,12h-62.9c-6.6,0-12-5.4-12-12v-62.9
		C-43.5-99.9-38.1-105.3-31.5-105.3z"/>
	<circle class="st3" cx="-362.1" cy="-308.1" r="37.7"/>
	<circle class="st4" cx="362.1" cy="-308.1" r="37.7"/>
	<circle class="st5" cx="-362.1" cy="300.3" r="37.7"/>
	<circle class="st6" cx="362.1" cy="300.3" r="37.7"/>
</g>
<g class="st7">
	<path class="st1" d="M196,933.8V805.2h88.1V827H222v30.4h53.7v21.8H222v54.6H196z"/>
	<path class="st1" d="M305.4,805.2h26v69.6c0,11.1,0.3,18.2,1,21.5c1.1,5.3,3.8,9.5,7.9,12.7c4.2,3.2,9.9,4.8,17.1,4.8
		c7.4,0,12.9-1.5,16.7-4.5c3.7-3,6-6.7,6.8-11.1c0.8-4.4,1.1-11.7,1.1-21.8v-71.1h26v67.5c0,15.4-0.7,26.3-2.1,32.7
		c-1.4,6.4-4,11.8-7.8,16.1s-8.8,7.9-15.1,10.5c-6.3,2.6-14.6,3.9-24.7,3.9c-12.3,0-21.6-1.4-27.9-4.3c-6.3-2.8-11.4-6.5-15-11.1
		c-3.7-4.5-6.1-9.3-7.3-14.3c-1.7-7.4-2.5-18.2-2.5-32.6V805.2z"/>
	<path class="st1" d="M435.4,933.8V805.2h88.1V827h-62.2v30.4h53.7v21.8h-53.7v54.6H435.4z"/>
	<path class="st1" d="M544.8,805.2h26v69.6c0,11.1,0.3,18.2,1,21.5c1.1,5.3,3.8,9.5,7.9,12.7c4.2,3.2,9.9,4.8,17.1,4.8
		c7.4,0,12.9-1.5,16.7-4.5c3.7-3,6-6.7,6.8-11.1c0.8-4.4,1.1-11.7,1.1-21.8v-71.1h26v67.5c0,15.4-0.7,26.3-2.1,32.7
		c-1.4,6.4-4,11.8-7.8,16.1s-8.8,7.9-15.1,10.5c-6.3,2.6-14.6,3.9-24.7,3.9c-12.3,0-21.6-1.4-27.9-4.3c-6.3-2.8-11.4-6.5-15-11.1
		c-3.7-4.5-6.1-9.3-7.3-14.3c-1.7-7.4-2.5-18.2-2.5-32.6V805.2z"/>
	<path class="st1" d="M675,933.8V805.2h25.3l52.6,85.9v-85.9h24.1v128.6h-26l-51.8-83.8v83.8H675z"/>
	<path class="st1" d="M803.6,933.8V805.2h26v128.6H803.6z"/>
</g>
</svg>
